#!OML:ASF F:\VICON\USERDATA\INSTALL\rory3\rory3.ASF
:FULLY-SPECIFIED
:DEGREES
3384
root -9.35096 17.9392 2.87811 899.996 2.40129 178.121
lowerback 11.1905 3.18442 2.01287
upperback 2.18289 4.6347 -0.97708
thorax -3.73672 2.36188 -2.80245
lowerneck -12.6849 6.63035 -11.494
upperneck 45.9554 5.77038 2.98297
head 19.3238 -1.53362 3.83684
rclavicle 2.18663e-014 -1.2921e-014
rhumerus -22.5859 -8.39461 -78.0028
rradius 37.1678
rwrist 0.505174
rhand -17.4957 5.25202
rfingers 7.12502
rthumb 8.75702 -24.5463
lclavicle 2.18663e-014 -1.2921e-014
lhumerus -39.8303 19.6768 71.1997
lradius 36.885
lwrist 1.34115
lhand -18.8636 29.9003
lfingers 7.12502
lthumb 7.43679 59.7496
rfemur -4.12391 -3.8913 26.9499
rtibia 30.1966
rfoot -14.0967 3.35015
rtoes 9.58308
lfemur -22.0863 -5.39003 -19.3137
ltibia 22.917
lfoot -3.23778 -13.7527
ltoes -20.8558
3385
root -9.38019 17.9498 2.97928 899.838 2.13293 178.196
lowerback 11.3459 3.12711 2.05314
upperback 2.20178 4.57404 -0.864744
thorax -3.81249 2.33164 -2.71061
lowerneck -12.7854 6.62036 -11.5031
upperneck 46.071 5.7361 3.03877
head 19.4304 -1.55837 3.86621
rclavicle 7.31528e-014 -1.45113e-014
rhumerus -22.554 -8.66506 -77.7213
rradius 37.334
rwrist 1.3282
rhand -18.242 5.69688
rfingers 7.12502
rthumb 8.03682 -24.1303
lclavicle 7.31528e-014 -1.45113e-014
lhumerus -40.0029 19.6729 71.3334
lradius 36.4883
lwrist 0.848936
lhand -18.3089 28.7777
lfingers 7.12502
lthumb 7.9722 58.6074
rfemur -4.44805 -4.0213 26.9636
rtibia 30.3343
rfoot -13.9219 3.30213
rtoes 9.63952
lfemur -21.9004 -5.98571 -18.957
ltibia 24.3722
lfoot -4.59962 -11.9736
ltoes -21.0886
3386
root -9.4082 17.96 3.07784 899.696 1.84329 178.364
lowerback 11.444 3.06259 2.21952
upperback 2.2069 4.516 -0.763992
thorax -3.86014 2.30106 -2.6976
lowerneck -12.7308 6.61344 -11.4867
upperneck 46.1133 5.64925 3.14614
head 19.4448 -1.58167 3.90049
rclavicle 2.6339e-014 -7.55382e-015
rhumerus -22.6371 -9.01827 -77.5352
rradius 37.536
rwrist 1.74734
rhand -18.4605 5.6519
rfingers 7.12502
rthumb 7.82585 -24.1833
lclavicle 2.6339e-014 -7.55382e-015
lhumerus -40.1819 19.6288 71.4617
lradius 36.2409
lwrist 0.387795
lhand -17.7465 28.5194
lfingers 7.12502
lthumb 8.515 58.3277
rfemur -4.72734 -4.07386 27.0937
rtibia 30.4256
rfoot -13.7872 3.09003
rtoes 9.67697
lfemur -21.7399 -6.516 -18.5366
ltibia 25.9144
lfoot -5.65871 -10.0453
ltoes -21.8971
3387
root -9.43821 17.9741 3.17243 899.558 1.49242 178.455
lowerback 11.4313 2.99607 2.35347
upperback 2.24371 4.44914 -0.70277
thorax -3.81356 2.26947 -2.69708
lowerneck -12.608 6.59439 -11.4065
upperneck 46.0704 5.55502 3.20652
head 19.3893 -1.58736 3.8964
rclavicle 4.53229e-014 -3.57812e-015
rhumerus -22.7623 -9.51724 -77.377
rradius 37.727
rwrist 1.92279
rhand -18.4887 5.57359
rfingers 7.12502
rthumb 7.7987 -24.2626
lclavicle 4.53229e-014 -3.57812e-015
lhumerus -40.3417 19.503 71.6556
lradius 36.1404
lwrist 0.0580156
lhand -17.5193 28.9782
lfingers 7.12502
lthumb 8.73424 58.7775
rfemur -4.96385 -4.26467 27.1117
rtibia 30.4685
rfoot -13.7098 2.95294
rtoes 9.18361
lfemur -21.5821 -7.08015 -18.2141
ltibia 27.546
lfoot -6.13327 -8.09293
ltoes -21.8217
3388
root -9.46892 17.9877 3.26722 899.425 1.17918 178.526
lowerback 11.369 2.93113 2.45645
upperback 2.34853 4.38538 -0.609765
thorax -3.67355 2.24486 -2.64057
lowerneck -12.6684 6.50527 -11.5335
upperneck 45.9609 5.48801 3.30137
head 19.3297 -1.59644 3.95911
rclavicle 1.70458e-014 -1.19271e-015
rhumerus -22.7871 -9.9105 -77.2216
rradius 37.9299
rwrist 1.8103
rhand -18.5393 5.41235
rfingers 7.12502
rthumb 7.74987 -24.4256
lclavicle 1.70458e-014 -1.19271e-015
lhumerus -40.3593 19.7264 71.8429
lradius 35.9147
lwrist -0.335383
lhand -17.3581 28.9913
lfingers 7.12502
lthumb 8.88983 58.784
rfemur -5.18472 -4.414 27.1022
rtibia 30.4964
rfoot -13.62 2.8037
rtoes 8.71866
lfemur -21.3889 -7.58286 -17.9341
ltibia 29.2297
lfoot -6.56171 -6.31893
ltoes -20.825
3389
root -9.49942 17.997 3.36234 899.255 0.804763 178.433
lowerback 11.3815 2.87159 2.4051
upperback 2.39961 4.30693 -0.58293
thorax -3.6377 2.21025 -2.57234
lowerneck -12.7012 6.43122 -11.5041
upperneck 45.9554 5.38359 3.30195
head 19.3513 -1.62838 3.93984
rclavicle 6.11263e-015 -8.74653e-015
rhumerus -22.9055 -10.2707 -77.0827
rradius 38.05
rwrist 1.55494
rhand -18.4986 5.22237
rfingers 7.12502
rthumb 7.78909 -24.6142
lclavicle 6.11263e-015 -8.74653e-015
lhumerus -40.355 19.8216 71.9658
lradius 35.5389
lwrist -0.672457
lhand -17.1955 28.535
lfingers 7.12502
lthumb 9.04665 58.321
rfemur -5.32371 -4.55582 26.9024
rtibia 30.4956
rfoot -13.4782 2.61351
rtoes 8.44091
lfemur -21.1521 -7.98529 -17.8937
ltibia 30.9549
lfoot -7.07158 -4.83474
ltoes -19.2963
3390
root -9.52726 18.0071 3.45445 899.122 0.405239 178.316
lowerback 11.3521 2.80641 2.30901
upperback 2.39755 4.20879 -0.572896
thorax -3.63706 2.16251 -2.4933
lowerneck -12.6781 6.40419 -11.444
upperneck 46.0176 5.27815 3.35157
head 19.3983 -1.6636 3.93617
rclavicle 1.93815e-015 -1.98785e-015
rhumerus -23.2258 -10.617 -76.9589
rradius 38.3013
rwrist 1.19767
rhand -18.2135 5.1285
rfingers 7.12502
rthumb 8.06427 -24.6976
lclavicle 1.93815e-015 -1.98785e-015
lhumerus -40.4656 19.746 72.05
lradius 35.3755
lwrist -1.1917
lhand -17.1759 28.3115
lfingers 7.12502
lthumb 9.06565 58.0967
rfemur -5.45014 -4.66549 26.6689
rtibia 30.4587
rfoot -13.378 2.51473
rtoes 8.48197
lfemur -20.9445 -8.16298 -17.9205
ltibia 32.7086
lfoot -7.65291 -3.5146
ltoes -18.3975
3391
root -9.55297 18.0186 3.54502 898.96 0.113148 178.491
lowerback 11.3371 2.76767 2.48932
upperback 2.39489 4.18188 -0.482052
thorax -3.62729 2.14781 -2.4951
lowerneck -12.549 6.37313 -11.4453
upperneck 45.9929 5.15751 3.46425
head 19.3499 -1.69262 3.9668
rclavicle -8.24956e-015 -1.19271e-015
rhumerus -23.6481 -10.8409 -76.8716
rradius 38.6131
rwrist 0.503641
rhand -18.033 5.33514
rfingers 7.12502
rthumb 8.23845 -24.4842
lclavicle -8.24956e-015 -1.19271e-015
lhumerus -40.5545 19.4446 72.2786
lradius 35.3216
lwrist -1.44561
lhand -17.3383 28.0676
lfingers 7.12502
lthumb 8.90886 57.8595
rfemur -5.55648 -4.67632 26.7533
rtibia 30.4197
rfoot -13.2806 2.46667
rtoes 8.39897
lfemur -20.6572 -8.16001 -17.6211
ltibia 34.4324
lfoot -8.0381 -2.37945
ltoes -17.1443
3392
root -9.5806 18.0336 3.63513 898.848 -0.159973 178.637
lowerback 11.3184 3.011 2.70541
upperback 2.34204 4.08249 -0.406878
thorax -3.65944 1.90469 -2.51164
lowerneck -12.367 6.36739 -11.3756
upperneck 45.9702 5.04997 3.54049
head 19.2914 -1.71243 3.96609
rclavicle -3.07122e-014 2.38542e-014
rhumerus -24.1655 -11.1324 -76.7794
rradius 38.8833
rwrist 0.0610632
rhand -17.9679 5.69214
rfingers 7.12502
rthumb 8.30135 -24.1248
lclavicle -3.07122e-014 2.38542e-014
lhumerus -40.6283 19.0725 72.5127
lradius 35.1727
lwrist -1.38313
lhand -17.3807 27.5811
lfingers 7.12502
lthumb 8.86797 57.3748
rfemur -5.72852 -4.73717 26.7907
rtibia 30.3858
rfoot -13.159 2.49835
rtoes 7.522
lfemur -20.4103 -8.11323 -17.3668
ltibia 36.0931
lfoot -8.20322 -1.45192
ltoes -15.6207
3393
root -9.60694 18.043 3.72676 898.75 -0.504026 178.542
lowerback 11.2839 2.96481 2.60479
upperback 2.37026 4.00788 -0.386557
thorax -3.62407 1.86928 -2.42125
lowerneck -12.4679 6.27722 -11.3374
upperneck 45.8994 4.98953 3.48885
head 19.2883 -1.71873 3.92984
rclavicle -4.00551e-014 8.74653e-015
rhumerus -24.5506 -11.4075 -76.6569
rradius 39.1254
rwrist -0.231621
rhand -18.0229 5.95286
rfingers 7.12502
rthumb 8.24824 -23.8661
lclavicle -4.00551e-014 8.74653e-015
lhumerus -40.5208 19.0302 72.7247
lradius 34.9722
lwrist -1.53365
lhand -17.4095 27.0965
lfingers 7.12502
lthumb 8.84019 56.8913
rfemur -5.89145 -4.71201 26.5822
rtibia 30.3473
rfoot -12.9774 2.42918
rtoes 6.35961
lfemur -20.1628 -8.02083 -17.3951
ltibia 37.6609
lfoot -8.4326 -0.80658
ltoes -10.9641
